<svg width="110" height="110" viewBox="0 0 110 110" fill="none" xmlns="http://www.w3.org/2000/svg">
<path d="M55 110C85.3757 110 110 85.3757 110 55C110 24.6243 85.3757 0 55 0C24.6243 0 0 24.6243 0 55C0 85.3757 24.6243 110 55 110Z" fill="#605DBA" fill-opacity="0.1"/>
<path d="M55 96.25C77.7817 96.25 96.25 77.7817 96.25 55C96.25 32.2183 77.7817 13.75 55 13.75C32.2183 13.75 13.75 32.2183 13.75 55C13.75 77.7817 32.2183 96.25 55 96.25Z" fill="#605DBA"/>
<path d="M64.625 52.6184C66.4583 53.6769 66.4583 56.3231 64.625 57.3816L52.25 64.5263C50.4167 65.5848 48.125 64.2617 48.125 62.1447V47.8553C48.125 45.7383 50.4167 44.4152 52.25 45.4737L64.625 52.6184Z" fill="white"/>
</svg>
